<?xml version="1.0" encoding="UTF-8"?>
<svg id="Layer_2" data-name="Layer 2" xmlns="http://www.w3.org/2000/svg" viewBox="0 0 500.36 500.36">
  <defs>
    <style>
      .cls-1 {
        fill: #ff4800;
      }

      .cls-1, .cls-2, .cls-3, .cls-4 {
        stroke-width: 0px;
      }

      .cls-2 {
        fill: #121417;
      }

      .cls-3 {
        fill: #fff;
      }

      .cls-4 {
        fill: #ffa300;
      }
    </style>
  </defs>
  <g id="qmarket-app-white">
    <g id="qmarket-app-symbol-white">
      <g>
        <rect class="cls-3" width="500.36" height="500.36" rx="100" ry="100"/>
        <g>
          <path class="cls-2" d="M303.46,379.81h0c-17.94-20.02-27.63-31.45-54.51-31.45h-84.52c-13.83,0-25.04-11.21-25.04-25.04v-20.75h-.03c0-2.2,0-4.5,0-6.91v-71.29c-29.89,0-54.24-23.67-55.36-53.28l-.05,177.26c0,30.6,24.81,55.41,55.41,55.41h153.41c12.43,0,18.99-14.71,10.7-23.96"/>
          <path class="cls-2" d="M416.39,169.98c-.54,30.13-25.13,54.39-55.39,54.39h0v82.82c0,7.71-9.09,11.35-13.99,5.6l-25.04-29.39c-9.96-12.18-27.45-13.59-39.07-3.16-11.62,10.44-12.97,28.77-3.01,40.95l58.77,68.97c26.93,31.61,76.72,3.78,77.75-38.58.01-.5.02-1,.02-1.5v-180.11h-.03Z"/>
          <path class="cls-1" d="M139.36,224.38h0c-30.6,0-55.41-24.81-55.41-55.41v-17.28c0-30.43,24.67-55.09,55.09-55.09h55.73v72.37c0,30.6-24.81,55.41-55.41,55.41"/>
          <path class="cls-4" d="M250.18,224.38h0c-30.6,0-55.41-24.81-55.41-55.41v-72.37h110.83v72.37c0,30.6-24.81,55.41-55.41,55.41"/>
          <path class="cls-1" d="M361.01,224.38h0c-30.6,0-55.41-24.81-55.41-55.41v-72.37h55.73c30.43,0,55.09,24.67,55.09,55.09v17.28c0,30.6-24.81,55.41-55.41,55.41"/>
        </g>
      </g>
    </g>
  </g>
</svg>